<svg width="194" height="29" viewBox="0 0 194 29" fill="none" xmlns="http://www.w3.org/2000/svg">
<path d="M90.7012 25.5195C87.028 15.4026 57.8578 13.4487 34.4494 22.1562C30.944 23.139 28.2795 23.9233 25.1255 23.8111C23.4627 23.7519 21.9397 23.3544 20.6177 22.5025C16.6018 19.9146 17.4944 12.0592 23.6671 12.6577M23.6671 12.6577C23.8438 12.6748 24.0249 12.6989 24.2102 12.7302M23.6671 12.6577C23.85 12.666 24.0316 12.6908 24.2102 12.7302M23.6671 12.6577C23.6295 12.656 23.5918 12.655 23.5541 12.6547M24.2102 12.7302C24.2534 12.7375 24.2968 12.7452 24.3405 12.7533M24.2102 12.7302C26.43 13.2205 28.1892 15.9751 26.2225 17.4345C24.8328 18.4658 22.6951 17.6483 22.8239 15.5196" stroke="#808080" stroke-width="3"/>
<path d="M103.154 25.5195C106.828 15.4026 135.998 13.4487 159.406 22.1562C162.912 23.139 165.576 23.9233 168.73 23.8111C170.393 23.7519 171.916 23.3544 173.238 22.5025C177.254 19.9146 176.361 12.0592 170.189 12.6577M170.189 12.6577C170.012 12.6748 169.831 12.6989 169.645 12.7302M170.189 12.6577C170.006 12.666 169.824 12.6908 169.645 12.7302M170.189 12.6577C170.226 12.656 170.264 12.655 170.302 12.6547M169.645 12.7302C169.602 12.7375 169.559 12.7452 169.515 12.7533M169.645 12.7302C167.426 13.2205 165.666 15.9751 167.633 17.4345C169.023 18.4658 171.161 17.6483 171.032 15.5196" stroke="#808080" stroke-width="3"/>
<path fill-rule="evenodd" clip-rule="evenodd" d="M98.8419 14.2772C99.342 13.0105 99.6565 11.1735 99.6565 9.12946C99.6565 7.61443 98.5571 3.59387 97.201 2.20996C95.8448 3.59387 94.7454 7.61443 94.7454 9.12946C94.7454 11.2503 95.084 13.1483 95.6172 14.4176C90.4038 10.6544 86.2036 14.3573 83.5811 15.381C87.156 15.243 91.7929 17.3777 94.522 20.0921C95.645 21.209 96.5252 22.4759 97.1627 23.828C97.8118 22.2598 98.7769 20.7905 100.058 19.5164C102.679 16.9098 107.138 14.7719 110.573 14.7957C107.785 13.5791 103.774 10.673 98.8419 14.2772Z" stroke="#808080" stroke-width="3"/>
<path d="M178.522 22.1567C179.816 22.5434 181.655 22.6911 183.67 22.5032C185.162 22.3639 189.517 20.6457 190.757 19.1539C187.167 18.1362 182.945 17.7455 181.446 17.7267C179.008 17.6962 180.426 19.2407 178.522 22.1567Z" stroke="#808080" stroke-width="3"/>
<path d="M15.4779 22.1567C14.1837 22.5434 12.3447 22.6911 10.3305 22.5032C8.83758 22.3639 4.48253 20.6457 3.24349 19.1539C6.83273 18.1362 11.0546 17.7455 12.5538 17.7267C14.9919 17.6962 13.5744 19.2407 15.4779 22.1567Z" stroke="#808080" stroke-width="3"/>
</svg>
